<svg width="330" height="216" viewBox="0 0 330 216" fill="none" xmlns="http://www.w3.org/2000/svg">
<path d="M178.323 158.23C172.191 159.878 179.583 149.48 185.231 143.251C199.144 127.496 188.818 144.899 191.751 146.063C191.751 146.063 201.18 137.506 198.271 131.665C196.235 127.593 186.709 127.69 176.19 135.446C164.629 145.65 164.144 157.818 164.144 157.818C164.144 157.818 163.077 164.241 170.179 165.501C171.73 165.695 181.062 162.399 185.934 162.399C190.006 162.399 189.715 165.501 189.521 166.786C187.485 178.832 178.735 183.22 175.415 185.352C172.215 187.485 171.536 182.25 173.379 178.057C174.348 175.924 168.991 174.567 167.731 181.159C166.568 187.001 168.798 194.975 174.348 196.138C193.981 200.041 213.129 148.898 178.323 158.23Z" fill="white"/>
<path d="M217.613 159.515C213.735 165.356 211.481 176.821 210.899 179.826C210.899 179.826 211.869 166.107 208.96 161.066C207.506 158.448 204.767 157.285 202.537 156.897C199.144 156.121 195.823 156.218 199.532 160.193C204.888 167.974 199.241 196.357 202.343 208.912C204.185 216.208 207.603 215.529 209.833 215.044C212.644 214.365 210.899 210.172 211.287 202.513C211.578 194.927 211.19 193.472 214.486 178.105C217.007 166.544 221.588 153.891 219.067 174.324C218.098 182.105 214.389 186.952 213.129 188.334C211.966 189.594 213.032 191.048 214.196 191.436C224.497 194.636 227.43 178.008 228.399 171.513C229.466 164.411 228.302 159.757 226.363 157.988C222.752 154.643 219.94 156.097 217.613 159.515Z" fill="white"/>
<path d="M274.524 178.081C274.621 174.397 275.202 155.031 264.804 158.836C263.641 160.484 264.416 161.066 262.768 167.101C261.12 173.136 258.187 181.983 257.315 182.953C256.442 184.019 253.122 187.631 257.121 172.458C258.478 167.392 262.187 156.994 268.198 155.54C269.749 155.152 270.718 155.152 268.392 153.213C258.939 145.384 247.304 164.314 245.777 178.154C244.759 181.983 243.038 187.001 241.705 184.31C240.833 182.274 240.542 177.208 240.542 172.458C240.736 159.927 241.608 147.177 240.348 134.743C239.863 129.29 238.409 124.054 231.792 124.248C227.817 124.345 229.174 124.636 229.853 127.157C230.435 129.387 230.726 131.932 230.919 134.162C232.083 146.499 230.726 159.83 231.016 172.264C231.113 175.075 231.307 178.008 231.598 180.723C232.762 189.376 237.536 191.8 241.415 190.636C243.644 189.982 245.268 188.237 246.456 186.225C247.935 190.03 251.013 190.612 254.115 189.473C262.284 186.37 262.962 175.56 265.871 167.974C265.192 175.366 261.896 194.611 274.621 191.606C279.371 190.418 274.039 190.709 274.524 178.081Z" fill="white"/>
<path d="M283.759 155.418C281.432 157.261 279.978 159.49 279.081 161.648C276.366 167.974 278.402 171.561 285.407 174.082C289.794 175.633 290.182 178.76 286.667 180.893C284.243 182.347 282.28 182.832 279.759 181.765C279.178 181.474 278.402 181.474 278.208 183.123C276.754 196.357 298.811 188.867 295.611 177.475C294.739 174.276 290.933 173.185 287.734 170.761C282.668 166.98 291.515 157.236 295.708 158.327C297.453 158.715 297.162 156.291 296.193 155.515C296.193 155.515 291.151 149.48 283.759 155.418Z" fill="white"/>
<path d="M325.569 182.153C325.472 179.438 325.569 175.827 325.666 172.434C325.86 167.368 327.121 160.775 324.115 156.485C322.273 153.867 319.34 152.704 315.947 155.709C311.269 159.878 308.942 173.888 308.942 173.888C308.845 161.454 309.912 146.959 308.748 134.695C308.36 130.211 307.488 126.721 304.87 125.46C303.319 124.588 301.768 124.103 300.289 124.2C296.411 124.297 297.768 124.588 298.447 127.108C299.029 129.338 299.32 131.883 299.513 134.113C300.58 146.547 299.126 164.362 298.932 175.633C298.641 185.934 300.774 189.546 306.034 189.546C311.293 189.546 309.718 188.382 312.747 173.306C314.008 166.883 314.88 163.393 315.753 161.648C316.819 159.418 317.207 159.806 317.401 160.969C317.886 164.459 317.401 169.719 317.11 173.306C316.335 183.898 318.371 189.837 322.467 192.26C324.891 193.715 329.472 192.454 328.599 191.582C327.024 190.03 325.763 185.086 325.569 182.153Z" fill="white"/>
<path d="M32.2399 0.100677C16.4367 -1.06275 17.7698 8.24468 21.9387 8.07502C25.938 7.73568 38.2267 7.90534 44.3832 31.6829C46.5404 39.6572 49.0369 71.0698 42.3957 91.1874C37.5723 105.973 29.9373 114.117 21.6236 95.8412C19.1271 90.1937 16.9699 82.0497 17.1396 70.2457C17.3092 40.4813 35.5848 20.7031 35.5848 20.7031C35.5848 20.7031 38.0813 17.5521 35.0758 15.71C35.0758 15.71 24.2656 8.55977 15.2975 19.37C6.32938 30.3498 -0.166419 48.1163 0.00324779 75.0691C0.172914 90.533 7.32315 102.507 14.6431 109.487C28.6042 122.964 43.7288 114.65 53.8845 100.834C69.5181 79.2138 67.8457 41.9841 57.5445 20.2183C53.1816 11.3956 47.8735 1.09444 32.2399 0.100677Z" fill="white"/>
<path d="M102.215 78.7291C109.705 81.056 109.535 77.0567 109.026 73.2513C108.372 69.5913 109.026 63.7742 110.359 57.6177C111.523 51.4612 108.202 46.6379 106.215 44.311C104.227 41.8145 99.5734 40.651 95.9134 44.4807C92.2535 48.1406 86.7757 63.0955 86.7757 63.0955C86.7757 63.0955 86.9453 50.1281 82.122 45.8138C77.4682 41.4994 70.318 42.4931 70.318 42.4931C67.3367 42.8325 66.4884 45.329 69.1546 46.3228C71.6511 47.4862 71.9904 52.4792 71.9904 52.4792C71.9904 52.4792 72.3298 70.7548 71.4814 87.8911C70.827 105.003 76.3048 107.669 82.122 106.506C87.9391 105.343 85.7819 105.852 86.1212 88.5455C86.6302 71.0941 95.0893 55.4605 95.0893 55.4605V62.2714C95.0651 62.2714 94.5803 76.4022 102.215 78.7291Z" fill="white"/>
<path d="M132.15 110.142C137.143 104.979 151.928 101.658 143.953 95.8412C143.299 95.1868 142.451 94.8474 141.796 94.6778C149.94 87.3578 156.097 74.2208 155.418 64.7679C154.594 54.2971 149.94 51.1461 149.94 51.1461C149.94 51.1461 151.928 49.813 151.758 48.9889C151.758 48.1649 151.588 45.1593 142.451 42.8325C133.313 40.5056 121.17 52.7943 116.516 61.617C105.875 81.5649 117.34 104.494 133.313 99.695C130.477 102.531 127.156 106.167 124.83 109.511C120.006 116.322 117.679 121.485 121.994 121.315C126.138 121.146 145.093 113.511 145.602 120.322C146.111 126.963 133.143 134.961 121.994 135.786C110.699 136.779 108.202 132.95 110.699 127.133C113.195 121.315 117.34 120.806 117.025 117.825C116.686 114.989 112.541 114.674 109.051 117.316C105.391 119.982 90.0964 142.742 107.887 151.395C132.828 163.369 168.555 124.636 153.431 111.669C147.929 106.991 132.15 110.142 132.15 110.142ZM129.968 76.4022C132.949 61.108 144.608 54.2971 144.608 54.2971C156.751 67.2645 143.275 85.7097 138.791 89.3696C134.137 93.0053 126.987 91.6965 129.968 76.4022Z" fill="white"/>
<path d="M172.699 104.155C186.66 98.8467 187.824 80.3773 192.817 67.4099C191.653 80.038 186.006 112.953 207.772 107.815C215.916 105.827 206.778 106.312 207.602 84.7159C207.772 78.3898 208.766 45.329 190.975 51.8006C188.987 54.6364 190.32 55.6302 187.485 65.9314C184.649 76.2326 179.68 91.3571 178.177 93.0296C176.674 94.8474 171.027 101.004 177.838 75.0691C180.165 66.4161 186.491 48.6254 196.792 46.1531C199.458 45.4987 201.106 45.4987 197.131 42.1538C178.007 26.3506 153.745 74.4147 158.908 96.5199C161.065 104.979 166.882 106.312 172.699 104.155Z" fill="white"/>
<path d="M215.407 89.3696C215.068 99.8405 219.067 103.84 223.212 104.834C235.016 107.669 232.689 95.0171 234.022 86.8731C236.688 70.7548 240.348 64.259 240.348 64.259C240.348 64.259 239.839 82.0497 240.009 93.0053C240.178 103.985 246.989 106.482 253.315 106.482C259.642 106.482 257.46 103.5 257.46 103.5C253.146 87.6972 258.284 69.761 256.127 53.7881C254.964 44.6503 248.153 41.8145 242.99 44.82C237.682 47.8013 231.525 70.2458 231.525 70.2458C230.701 63.9196 230.532 60.2839 225.199 56.115C220.715 52.6247 214.728 54.6122 214.728 54.6122C211.892 55.7756 213.395 57.5935 214.559 58.9266C217.904 62.2714 215.407 86.0248 215.407 89.3696Z" fill="white"/>
<path d="M328.284 78.8988C326.781 78.0747 325.133 83.8918 324.624 84.8856C321.958 91.3571 316.82 101.513 309.984 100.18C300.023 98.1923 301.84 70.4154 303.998 63.4349C305.985 57.1087 309.815 49.1344 312.481 56.115C313.814 59.6053 313.984 65.7617 312.82 69.252C319.631 68.0886 320.964 57.2784 319.971 52.6247C315.826 34.8339 292.218 42.9779 287.564 63.4349C285.189 71.3365 284.656 78.2928 285.383 84.2312C284.728 86.8974 283.88 90.6058 282.886 93.8537C281.068 100.01 279.226 95.6715 278.887 88.2062C278.378 80.7166 278.548 64.5983 278.548 57.4481C278.548 50.2978 275.881 48.1406 269.895 44.6503C263.738 41.1601 260.927 42.6628 262.914 48.9647C263.569 51.2916 263.423 57.4481 262.744 72.7423C262.235 88.2062 262.575 107.984 275.881 107.33C282.983 106.991 286.498 101.028 288.316 94.6535C297.672 113.85 324.164 113.317 328.939 84.8856C329.133 83.3828 329.957 80.0622 328.284 78.8988Z" fill="white"/>
<path d="M271.349 39.6088C271.615 39.5361 271.858 39.4391 271.858 39.4391C273.603 38.8574 279.347 36.6518 281.674 31.8284C283.783 27.4413 282.45 22.1574 281.723 19.9517C281.529 19.3458 280.874 19.0307 280.268 19.2488C278.087 20.0487 273.118 22.2786 271.009 26.6657C268.682 31.4891 270.525 37.3789 271.179 39.0998C271.179 39.0998 271.276 39.3664 271.349 39.6088Z" fill="white"/>
</svg>
